<?xml version="1.0" standalone="no"?>
<!DOCTYPE svg PUBLIC "-//W3C//DTD SVG 20010904//EN"
 "http://www.w3.org/TR/2001/REC-SVG-20010904/DTD/svg10.dtd">
<svg version="1.0" xmlns="http://www.w3.org/2000/svg"
 width="928.000000pt" height="928.000000pt" viewBox="0 0 928.000000 928.000000"
 preserveAspectRatio="xMidYMid meet">
<metadata>
Created by potrace 1.11, written by Peter Selinger 2001-2013
</metadata>
<g transform="translate(0.000000,928.000000) scale(0.100000,-0.100000)"
fill="#000000" stroke="none">
<path d="M4601 9263 c1 -10 1 -39 0 -64 l-1 -45 -102 -1 c-57 -1 -123 -4 -148
-8 -25 -4 -57 -9 -72 -10 -105 -14 -243 -70 -329 -135 -127 -95 -219 -270
-214 -404 1 -33 6 -149 10 -258 l7 -196 -36 -17 c-50 -24 -114 -99 -130 -154
-18 -62 -13 -141 14 -196 36 -74 137 -144 210 -145 23 0 25 -4 26 -48 4 -193
19 -275 65 -362 49 -92 214 -251 303 -291 20 -9 26 -19 26 -43 0 -26 -6 -34
-29 -43 -16 -6 -40 -27 -53 -48 -21 -33 -28 -37 -74 -40 -65 -5 -166 -30 -224
-57 -147 -67 -262 -181 -399 -396 -55 -86 -105 -164 -111 -172 -14 -20 -130
-203 -200 -314 -30 -49 -61 -94 -67 -101 -7 -8 -13 -17 -13 -20 0 -4 -13 -25
-29 -48 -44 -64 -151 -231 -154 -242 -2 -6 -131 -10 -353 -11 -192 -1 -353 -2
-358 -3 -4 0 -6 -7 -3 -15 7 -19 -7 -23 -70 -21 -28 1 -52 -1 -51 -4 0 -3 0
-24 -1 -47 -1 -38 -3 -40 -30 -38 -16 1 -47 15 -68 32 -75 59 -223 80 -339 49
-48 -12 -55 -12 -100 8 -27 12 -65 29 -84 37 -19 8 -68 30 -109 48 -89 40
-132 35 -167 -17 -44 -65 -12 -125 91 -168 66 -29 67 -29 44 -46 -24 -18 -24
-18 -134 31 -92 40 -238 101 -273 113 -76 26 -143 0 -163 -64 -20 -63 -18 -64
246 -204 50 -26 143 -77 207 -111 l117 -64 380 0 c252 0 380 -3 383 -10 2 -6
29 -11 60 -12 36 -1 59 -7 62 -15 4 -10 90 -12 404 -12 436 0 453 2 560 58
105 57 120 76 377 484 48 75 91 140 96 143 5 3 9 -366 9 -880 l0 -885 30 4
c37 5 43 -5 47 -80 5 -109 56 -213 138 -287 l30 -27 1 -1428 1 -1428 42 -3 41
-3 -31 -44 c-29 -41 -47 -51 -109 -61 -14 -2 -36 -7 -50 -10 -69 -16 -79 -18
-157 -35 -29 -5 -55 -10 -58 -10 -19 1 -101 -31 -117 -46 -18 -16 -49 -18
-447 -18 -406 0 -428 -1 -460 -20 -48 -28 -72 -65 -78 -118 -6 -52 20 -108 65
-142 27 -20 45 -20 2031 -22 1315 -2 2017 0 2041 7 121 32 145 192 41 265
l-42 30 -429 0 c-375 0 -430 2 -447 16 -28 24 -64 35 -248 75 -180 39 -197 42
-206 43 -3 1 -20 21 -38 46 l-32 45 40 0 41 0 0 83 c0 45 1 688 1 1429 l0
1348 47 44 c82 77 115 161 126 321 1 27 5 30 36 30 l35 0 3 889 2 890 107
-170 c59 -93 111 -170 115 -172 5 -2 8 -8 8 -12 0 -16 109 -178 141 -210 51
-50 118 -92 188 -116 64 -21 80 -22 472 -23 344 -1 407 1 412 13 4 10 21 13
61 12 37 -1 57 3 61 12 3 9 90 12 388 12 211 0 387 4 393 9 5 4 58 34 119 66
93 49 323 172 390 209 67 37 73 76 21 130 -58 62 -87 57 -361 -62 -150 -65
-161 -68 -183 -54 -28 18 -23 22 49 51 70 28 99 57 101 102 1 45 -15 75 -54
95 -36 19 -64 15 -139 -20 -189 -86 -235 -103 -255 -96 -32 13 -94 21 -149 21
-96 -1 -164 -21 -223 -66 -24 -18 -51 -32 -60 -30 -9 2 -21 4 -27 4 -5 1 -10
20 -10 43 l0 43 -57 -1 c-32 0 -59 4 -59 8 -1 4 -2 14 -3 20 -1 10 -81 13
-354 13 -239 0 -355 4 -360 11 -4 6 -35 55 -70 110 -35 54 -115 180 -179 279
-63 99 -120 189 -127 199 -6 11 -19 29 -28 40 -10 11 -18 26 -18 33 0 7 -4 13
-10 13 -5 0 -10 4 -10 10 0 8 -73 123 -199 315 -131 200 -351 339 -554 349
-43 3 -50 7 -78 44 -17 23 -42 45 -55 48 -19 5 -24 13 -24 38 0 25 6 36 28 47
32 17 31 16 107 75 79 62 130 116 176 187 59 91 73 157 82 377 l2 65 31 -1
c38 -2 97 24 142 62 85 72 111 208 59 311 -25 48 -90 112 -129 126 -15 5 -24
37 -19 69 0 4 3 71 6 150 4 79 8 176 10 216 7 152 -67 309 -195 416 -54 46
-103 73 -185 107 -36 14 -79 43 -108 70 -54 53 -127 91 -205 108 -72 15 -84
14 -81 -6z m35 -5946 c3 -3 7 -630 7 -1394 l2 -1388 21 -3 c20 -3 21 -9 21
-113 0 -71 -4 -109 -11 -110 -6 -1 -66 -2 -133 -3 l-122 -1 1 112 c1 106 2
112 22 115 l21 3 1 1389 c1 1279 2 1390 17 1395 20 7 146 6 153 -2z"/>
<path d="M6510 7967 c-14 -5 -34 -21 -45 -36 -17 -23 -20 -43 -21 -163 l-1
-138 107 0 108 0 0 -898 c0 -712 3 -908 13 -943 17 -57 89 -130 145 -147 55
-16 1655 -18 1702 -1 50 17 62 57 62 206 l0 129 -105 0 c-58 -1 -106 1 -106 4
-1 3 -3 410 -4 905 -2 602 -6 911 -13 933 -17 51 -68 108 -120 133 l-47 23
-825 1 c-454 0 -837 -4 -850 -8z"/>
<path d="M1348 7031 c-278 -70 -410 -392 -260 -636 22 -37 659 -685 673 -685
14 0 644 639 671 680 59 92 80 222 54 336 -11 51 -62 139 -105 184 -63 65
-119 98 -205 120 -142 36 -256 11 -379 -83 l-38 -30 -22 21 c-99 89 -254 127
-389 93z"/>
</g>
</svg>
